  <svg xmlns="http://www.w3.org/2000/svg">
  <symbol id="floppy">
  <path fill="currentColor" d="M.5 0h1.615v1.615H.5zm0 1.615h1.615V3.23H.5zm0 1.615h1.615v1.615H.5zm0 1.616h1.615v1.615H.5zm0 1.616h1.615v1.615H.5zm0 1.615h1.615v1.615H.5zm0 1.615h1.615v1.615H.5zm0 1.616h1.615v1.615H.5zm0 1.615h1.615v1.615H.5zm0 1.615h1.615v1.615H.5zm0 1.616h1.615v1.615H.5zm0 1.616h1.615v1.615H.5zm0 1.615h1.615V21H.5zM18.27-.001v1.615h-1.615V-.001zM16.654 0v1.615h-1.615V0zm-1.615 0v1.615h-1.615V0zm-1.616 0v1.615h-1.615V0zm-1.615 0v1.615h-1.615V0zm-1.616 0v1.615H8.577V0zM8.577 0v1.615H6.962V0zM6.962 0v1.615H5.347V0zM5.346 0v1.615H3.731V0zM3.73.001v1.615H2.115V.001zm16.155 1.614V3.23H18.27V1.615zM5.346 3.23v1.615H3.731V3.23zm0-1.615V3.23H3.731V1.615zm0 3.231v1.615H3.731V4.846zM16.654 3.23v1.615h-1.615V3.23zm0-1.615V3.23h-1.615V1.615zm0 3.231v1.615h-1.615V4.846zM13.423 3.23v1.615h-1.615V3.23zm0-1.615V3.23h-1.615V1.615zm0 3.231v1.615h-1.615V4.846zm3.231 1.616v1.615h-1.615V6.462zm-1.615 0v1.615h-1.615V6.462zm-1.616 0v1.615h-1.615V6.462zm-1.615 0v1.615h-1.615V6.462zm-1.616 0v1.615H8.577V6.462zm-1.615 0v1.615H6.962V6.462zm-1.615 0v1.615H5.347V6.462zm-1.616 0v1.615H3.731V6.462zm12.924 4.845v1.615h-1.615v-1.615zm-1.616.001v1.615h-1.615v-1.615zm-1.615 0v1.615h-1.615v-1.615zm-1.616 0v1.615h-1.615v-1.615zm-1.615 0v1.615h-1.615v-1.615zm-1.616 0v1.615H8.577v-1.615zm-1.615 0v1.615H6.962v-1.615zm-1.615 0v1.615H5.347v-1.615zm-1.616 0v1.615H3.731v-1.615zm12.924 1.614v1.615h-1.615v-1.615zm-12.924.001v1.615H3.731v-1.615zm12.924 1.614v1.615h-1.615v-1.615zm-12.924.001v1.615H3.731v-1.615zm12.924 1.615v1.615h-1.615v-1.615zm-12.924.001v1.615H3.731v-1.615zm0 1.616v1.615H3.731V17.77zm12.924-.001v1.615h-1.615v-1.615zm1.615 1.616V21H18.27v-1.615zm-1.615-.001v1.615h-1.615v-1.615zm-1.616.001V21h-1.615v-1.615zm-1.615 0V21h-1.615v-1.615zm-1.616 0V21h-1.615v-1.615zm-1.615 0V21h-1.615v-1.615zm-1.616 0V21H8.577v-1.615zm-1.615 0V21H6.962v-1.615zm-1.615 0V21H5.347v-1.615zm-1.616 0V21H3.731v-1.615zm-1.616.001v1.615H2.115v-1.615zM21.5 21h-1.615v-1.615H21.5zm0-1.615h-1.615V17.77H21.5zm0-1.615h-1.615v-1.615H21.5zm0-1.616h-1.615v-1.615H21.5zm0-1.616h-1.615v-1.615H21.5zm0-1.615h-1.615v-1.615H21.5zm0-1.615h-1.615V9.693H21.5zm0-1.616h-1.615V8.077H21.5zm0-1.615h-1.615V6.462H21.5zm0-1.615h-1.615V4.847H21.5zm0-1.616h-1.615V3.231H21.5z"/>
  </symbol>

  <symbol id="floppy-dialog">
  <path fill="#000" d="M.5.5h3v3h-3zm0 3h3v3h-3zm0 3h3v3h-3zm0 3h3v3h-3zm0 3h3v3h-3zm0 3h3v3h-3zm0 3h3v3h-3zm0 3h3v3h-3zm0 3h3v3h-3zm0 3h3v3h-3zm0 3h3v3h-3zm0 3h3v3h-3zm0 3h3v3h-3zm33-36v3h-3v-3zm-3 0v3h-3v-3zm-3 0v3h-3v-3zm-3 0v3h-3v-3zm-3 0v3h-3v-3zm-3 0v3h-3v-3zm-3 0v3h-3v-3zm-3 0v3h-3v-3zm-3 0v3h-3v-3zm-3 0v3h-3v-3zm30 3v3h-3v-3zm-27 3v3h-3v-3zm0-3v3h-3v-3zm0 6v3h-3v-3zm21-3v3h-3v-3zm0-3v3h-3v-3zm0 6v3h-3v-3zm-6-3v3h-3v-3zm0-3v3h-3v-3zm0 6v3h-3v-3zm6 3v3h-3v-3zm-3 0v3h-3v-3zm-3 0v3h-3v-3zm-3 0v3h-3v-3zm-3 0v3h-3v-3zm-3 0v3h-3v-3zm-3 0v3h-3v-3zm-3 0v3h-3v-3zm24 9v3h-3v-3zm-3 0v3h-3v-3zm-3 0v3h-3v-3zm-3 0v3h-3v-3zm-3 0v3h-3v-3zm-3 0v3h-3v-3zm-3 0v3h-3v-3zm-3 0v3h-3v-3zm-3 0v3h-3v-3zm24 3v3h-3v-3zm-24 0v3h-3v-3zm24 3v3h-3v-3zm-24 0v3h-3v-3zm24 3v3h-3v-3zm-24 0v3h-3v-3zm0 3v3h-3v-3zm24 0v3h-3v-3zm3 3v3h-3v-3zm-3 0v3h-3v-3zm-3 0v3h-3v-3zm-3 0v3h-3v-3zm-3 0v3h-3v-3zm-3 0v3h-3v-3zm-3 0v3h-3v-3zm-3 0v3h-3v-3zm-3 0v3h-3v-3zm-3 0v3h-3v-3zm-3 0v3h-3v-3zm33 3h-3v-3h3zm0-3h-3v-3h3zm0-3h-3v-3h3zm0-3h-3v-3h3zm0-3h-3v-3h3zm0-3h-3v-3h3zm0-3h-3v-3h3zm0-3h-3v-3h3zm0-3h-3v-3h3zm0-3h-3v-3h3zm0-3h-3v-3h3z"/>
 </symbol>
 </svg>